<svg xmlns="http://www.w3.org/2000/svg" width="1380" height="545" version="1.1" class='text-white'>
    <path d="M188.028 20.098 C 143.357 23.670,105.164 40.549,72.007 71.373 C 28.692 111.640,6.048 176.730,16.417 231.162 C 27.750 290.648,86.940 392.622,178.994 511.252 C 191.672 527.590,196.589 530.639,205.710 527.822 C 211.698 525.973,213.050 524.578,229.615 503.169 C 316.860 390.410,376.201 286.693,386.050 229.754 C 397.475 163.692,363.877 89.663,304.926 51.008 C 269.990 28.101,227.720 16.924,188.028 20.098 M210.739 55.296 C 284.433 61.567,339.885 112.593,351.565 184.881 C 356.588 215.972,349.950 242.950,324.800 293.662 C 302.548 338.530,281.582 371.086,222.419 452.641 C 212.164 466.778,203.227 479.098,202.561 480.018 C 201.894 480.937,201.216 481.690,201.053 481.690 C 200.733 481.690,184.596 460.353,174.424 446.479 C 104.961 351.733,58.222 267.177,50.735 222.711 C 43.261 178.325,64.038 124.453,100.880 92.693 C 131.700 66.124,172.954 52.081,210.739 55.296 M194.575 122.577 C 161.439 125.119,132.318 148.577,123.471 179.855 C 110.470 225.815,137.352 272.159,182.821 282.172 C 226.395 291.767,268.965 265.727,279.727 222.895 C 293.171 169.386,249.840 118.338,194.575 122.577  M -25 0 L -5 0 L -5 20 L -25 20 Z M 405 0 L 425 0 L 425 20 L 405 20 Z" stroke="none" fill="currentColor" fill-rule="evenodd"></path>
</svg>